<?xml version="1.0" encoding="utf-8"?>
<!-- Generator: Adobe Illustrator 25.4.1, SVG Export Plug-In . SVG Version: 6.00 Build 0)  -->
<svg version="1.1" id="Layer_1" xmlns="http://www.w3.org/2000/svg" xmlns:xlink="http://www.w3.org/1999/xlink" x="0px" y="0px"
	 viewBox="0 0 841.89 595.28" style="enable-background:new 0 0 841.89 595.28;" xml:space="preserve">
<style type="text/css">
	.st0{fill:#616681;}
	.st1{fill:url(#SVGID_1_);}
	.st2{fill:url(#SVGID_00000088831930162614918710000016198095477746468780_);}
	.st3{fill:url(#SVGID_00000075135713894353237760000016694442684065628846_);}
	.st4{fill:url(#SVGID_00000143607014603954905360000013227247607881894784_);}
	.st5{fill:url(#SVGID_00000085247287594235319190000007107391741506352565_);}
</style>
<g>
	<g>
		<g>
			<path class="st0" d="M198.18,423.78c5.58,2.96,9.9,7.11,12.96,12.45c3.06,5.34,4.59,11.51,4.59,18.5
				c0,6.92-1.53,13.07-4.59,18.45c-3.06,5.38-7.39,9.54-13.01,12.5c-5.61,2.96-12.12,4.44-19.51,4.44h-26.52v-70.78h26.52
				C186.09,419.34,192.6,420.82,198.18,423.78z M192.74,469.85c3.63-3.56,5.44-8.6,5.44-15.12c0-6.52-1.82-11.59-5.44-15.22
				c-3.63-3.63-8.71-5.45-15.22-5.45h-8.17v41.14h8.17C184.03,475.2,189.11,473.42,192.74,469.85z"/>
			<path class="st0" d="M231.1,487.4c-4.4-2.35-7.86-5.71-10.38-10.08c-2.52-4.37-3.78-9.48-3.78-15.33
				c0-5.78,1.28-10.87,3.83-15.27c2.55-4.4,6.05-7.78,10.49-10.13c4.44-2.35,9.41-3.53,14.92-3.53c5.51,0,10.49,1.18,14.92,3.53
				c4.44,2.35,7.93,5.73,10.49,10.13c2.55,4.4,3.83,9.49,3.83,15.27c0,5.78-1.29,10.87-3.88,15.28c-2.59,4.4-6.12,7.78-10.59,10.13
				c-4.47,2.35-9.46,3.53-14.97,3.53C240.46,490.93,235.5,489.75,231.1,487.4z M254.39,472.38c2.32-2.42,3.48-5.88,3.48-10.38
				c0-4.5-1.13-7.96-3.38-10.38c-2.25-2.42-5.02-3.63-8.32-3.63c-3.36,0-6.15,1.19-8.37,3.58c-2.22,2.39-3.33,5.86-3.33,10.43
				c0,4.5,1.09,7.97,3.28,10.38c2.18,2.42,4.92,3.63,8.22,3.63C249.26,476.01,252.07,474.8,254.39,472.38z"/>
			<path class="st0" d="M279.7,446.67c2.39-4.37,5.71-7.73,9.98-10.08c4.27-2.35,9.16-3.53,14.67-3.53c7.06,0,12.96,1.85,17.69,5.54
				c4.74,3.7,7.85,8.91,9.33,15.63h-18.35c-1.55-4.3-4.54-6.45-8.97-6.45c-3.16,0-5.68,1.23-7.56,3.68
				c-1.88,2.45-2.82,5.97-2.82,10.54c0,4.57,0.94,8.08,2.82,10.54c1.88,2.45,4.4,3.68,7.56,3.68c4.44,0,7.43-2.15,8.97-6.45h18.35
				c-1.48,6.59-4.6,11.76-9.38,15.53c-4.77,3.77-10.65,5.65-17.64,5.65c-5.51,0-10.4-1.18-14.67-3.53
				c-4.27-2.35-7.6-5.71-9.98-10.08c-2.39-4.37-3.58-9.48-3.58-15.33C276.12,456.14,277.31,451.04,279.7,446.67z"/>
			<path class="st0" d="M366.86,475.5v14.62h-8.77c-6.25,0-11.13-1.53-14.62-4.59c-3.5-3.06-5.24-8.05-5.24-14.97v-22.38h-6.86
				v-14.32h6.86v-13.71h17.24v13.71h11.29v14.32h-11.29v22.58c0,1.68,0.4,2.89,1.21,3.63c0.81,0.74,2.15,1.11,4.03,1.11H366.86z"/>
			<path class="st0" d="M382.13,487.4c-4.4-2.35-7.86-5.71-10.38-10.08c-2.52-4.37-3.78-9.48-3.78-15.33
				c0-5.78,1.28-10.87,3.83-15.27c2.55-4.4,6.05-7.78,10.48-10.13c4.44-2.35,9.41-3.53,14.92-3.53c5.51,0,10.48,1.18,14.92,3.53
				c4.44,2.35,7.93,5.73,10.49,10.13c2.55,4.4,3.83,9.49,3.83,15.27c0,5.78-1.29,10.87-3.88,15.28c-2.59,4.4-6.12,7.78-10.59,10.13
				c-4.47,2.35-9.46,3.53-14.97,3.53C391.49,490.93,386.53,489.75,382.13,487.4z M405.42,472.38c2.32-2.42,3.48-5.88,3.48-10.38
				c0-4.5-1.13-7.96-3.38-10.38c-2.25-2.42-5.02-3.63-8.32-3.63c-3.36,0-6.15,1.19-8.37,3.58c-2.22,2.39-3.33,5.86-3.33,10.43
				c0,4.5,1.09,7.97,3.28,10.38c2.18,2.42,4.92,3.63,8.22,3.63C400.29,476.01,403.1,474.8,405.42,472.38z"/>
			<path class="st0" d="M455.38,435.93c3.02-1.78,6.39-2.67,10.08-2.67v18.25h-4.74c-4.3,0-7.53,0.92-9.68,2.77
				c-2.15,1.85-3.23,5.09-3.23,9.73v26.11h-17.24v-56.26h17.24v9.38C449.83,440.15,452.35,437.71,455.38,435.93z"/>
			<path class="st0" d="M468.53,446.67c2.18-4.37,5.16-7.73,8.92-10.08c3.76-2.35,7.96-3.53,12.6-3.53c3.97,0,7.44,0.81,10.44,2.42
				c2.99,1.61,5.29,3.73,6.91,6.35v-7.96h17.24v56.26H507.4v-7.96c-1.68,2.62-4.02,4.74-7.01,6.35c-2.99,1.61-6.47,2.42-10.44,2.42
				c-4.57,0-8.74-1.19-12.5-3.58c-3.77-2.39-6.74-5.78-8.92-10.18c-2.19-4.4-3.28-9.49-3.28-15.27
				C465.26,456.11,466.35,451.04,468.53,446.67z M503.82,451.81c-2.39-2.49-5.29-3.73-8.72-3.73c-3.43,0-6.34,1.23-8.72,3.68
				c-2.39,2.45-3.58,5.83-3.58,10.13c0,4.3,1.19,7.71,3.58,10.23s5.29,3.78,8.72,3.78c3.43,0,6.33-1.24,8.72-3.73
				c2.39-2.49,3.58-5.88,3.58-10.18C507.4,457.69,506.2,454.3,503.82,451.81z"/>
			<path class="st0" d="M620.57,439.61c4.13,4.23,6.2,10.12,6.2,17.64v32.87h-17.14v-30.55c0-3.63-0.96-6.44-2.87-8.42
				c-1.92-1.98-4.56-2.97-7.91-2.97c-3.36,0-6,0.99-7.91,2.97c-1.92,1.98-2.87,4.79-2.87,8.42v30.55h-17.14v-30.55
				c0-3.63-0.96-6.44-2.87-8.42c-1.92-1.98-4.55-2.97-7.91-2.97c-3.36,0-6,0.99-7.91,2.97c-1.92,1.98-2.87,4.79-2.87,8.42v30.55
				H532.1v-56.26h17.24v7.06c1.75-2.35,4.03-4.22,6.86-5.6c2.82-1.38,6.01-2.07,9.58-2.07c4.23,0,8.02,0.91,11.34,2.72
				c3.33,1.82,5.93,4.4,7.81,7.76c1.95-3.09,4.6-5.61,7.96-7.56c3.36-1.95,7.02-2.92,10.99-2.92
				C610.87,433.26,616.44,435.37,620.57,439.61z"/>
			<path class="st0" d="M633.67,446.67c2.18-4.37,5.16-7.73,8.92-10.08c3.76-2.35,7.96-3.53,12.6-3.53c3.97,0,7.44,0.81,10.44,2.42
				c2.99,1.61,5.29,3.73,6.91,6.35v-7.96h17.24v56.26h-17.24v-7.96c-1.68,2.62-4.02,4.74-7.01,6.35c-2.99,1.61-6.47,2.42-10.44,2.42
				c-4.57,0-8.74-1.19-12.5-3.58c-3.77-2.39-6.74-5.78-8.92-10.18c-2.19-4.4-3.28-9.49-3.28-15.27
				C630.4,456.11,631.49,451.04,633.67,446.67z M668.96,451.81c-2.39-2.49-5.29-3.73-8.72-3.73c-3.43,0-6.34,1.23-8.72,3.68
				c-2.39,2.45-3.58,5.83-3.58,10.13c0,4.3,1.19,7.71,3.58,10.23s5.29,3.78,8.72,3.78c3.43,0,6.33-1.24,8.72-3.73
				c2.39-2.49,3.58-5.88,3.58-10.18C672.54,457.69,671.35,454.3,668.96,451.81z"/>
		</g>
	</g>
	<g>
		<g>
			<linearGradient id="SVGID_1_" gradientUnits="userSpaceOnUse" x1="354.4696" y1="341.28" x2="465.632" y2="129.588">
				<stop  offset="0" style="stop-color:#21D7B8"/>
				<stop  offset="1" style="stop-color:#4982D1"/>
			</linearGradient>
			<path class="st1" d="M528.76,227.69c-0.63,55.37-38.36,101.98-89.42,116.1c-4.23,1.18-8.54,2.14-12.94,2.84
				c-3.32,0.55-6.69,0.95-10.11,1.21c3.84-2.06,6.46-6.11,6.46-10.78c0-5.14-3.18-9.55-7.68-11.34c3.07-0.23,6.12-0.64,9.12-1.16
				c3.97-0.7,7.87-1.63,11.67-2.8c40.93-12.45,70.79-50.54,70.79-95.49c0-55.02-44.77-99.79-99.8-99.79h-35
				c-1.25,0-2.28,1.03-2.28,2.28v66.16h-22.14v-86.08c0-2.49,2.02-4.51,4.51-4.51h53.48C473.25,104.35,529.54,159.86,528.76,227.69z
				"/>
		</g>
		<g>
			
				<linearGradient id="SVGID_00000043423309230496736930000011459544466908306835_" gradientUnits="userSpaceOnUse" x1="394.2653" y1="368.0503" x2="507.7623" y2="151.9125">
				<stop  offset="0" style="stop-color:#21D7B8"/>
				<stop  offset="1" style="stop-color:#4982D1"/>
			</linearGradient>
			<path style="fill:url(#SVGID_00000043423309230496736930000011459544466908306835_);" d="M424.18,324.56
				c-3.37-3.7-8.24-6.02-13.65-6.02c-10.24,0-18.53,8.29-18.53,18.53c0,10.24,8.3,18.52,18.53,18.52c6.73,0,12.62-3.59,15.86-8.96
				c1.69-2.79,2.66-6.06,2.66-9.56C429.05,332.26,427.22,327.86,424.18,324.56z M410.52,349.29c-6.75,0-12.21-5.47-12.21-12.23
				c0-6.75,5.47-12.21,12.21-12.21c1.61,0,3.14,0.31,4.54,0.87c4.51,1.8,7.68,6.2,7.68,11.34c0,4.67-2.62,8.72-6.46,10.78
				C414.57,348.77,412.62,349.29,410.52,349.29z"/>
			
				<linearGradient id="SVGID_00000004542992367032160930000010538830722691597198_" gradientUnits="userSpaceOnUse" x1="394.2645" y1="368.0498" x2="507.7615" y2="151.9121">
				<stop  offset="0" style="stop-color:#21D7B8"/>
				<stop  offset="1" style="stop-color:#4982D1"/>
			</linearGradient>
			<path style="fill:url(#SVGID_00000004542992367032160930000010538830722691597198_);" d="M435.85,321.76
				c-5.2-8.56-14.6-14.29-25.31-14.29c-16.32,0-29.6,13.28-29.6,29.6c0,16.32,13.28,29.59,29.6,29.59c14.01,0,25.77-9.78,28.8-22.87
				c0.52-2.16,0.78-4.41,0.78-6.72C440.12,331.48,438.56,326.23,435.85,321.76z M398.31,337.07c0-6.75,5.47-12.21,12.21-12.21
				c1.61,0,3.14,0.31,4.54,0.87c4.51,1.8,7.68,6.2,7.68,11.34c0,4.67-2.62,8.72-6.46,10.78c-1.72,0.92-3.67,1.45-5.77,1.45
				C403.78,349.29,398.31,343.82,398.31,337.07z"/>
		</g>
		<g>
			
				<linearGradient id="SVGID_00000143578785498200262870000003765410354660766628_" gradientUnits="userSpaceOnUse" x1="289.4174" y1="311.7767" x2="400.5885" y2="100.0684">
				<stop  offset="0" style="stop-color:#21D7B8"/>
				<stop  offset="1" style="stop-color:#4982D1"/>
			</linearGradient>
			<path style="fill:url(#SVGID_00000143578785498200262870000003765410354660766628_);" d="M359.56,183.61
				c3.42-0.08,6.77,0.2,10,0.81v21.06c0,0.9-0.87,1.55-1.73,1.29c-1.96-0.59-4.01-0.94-6.15-1.02
				c-14.48-0.55-26.42,11.07-26.42,25.43v32.84c0,2.03-1.65,3.67-3.67,3.67h-14.79c-2.03,0-3.67-1.64-3.67-3.67v-31.96
				C313.12,206.09,333.58,184.23,359.56,183.61z"/>
			
				<linearGradient id="SVGID_00000029764965131671366430000015008710986961808040_" gradientUnits="userSpaceOnUse" x1="359.9272" y1="291.7152" x2="435.1654" y2="148.4354">
				<stop  offset="0" style="stop-color:#21D7B8"/>
				<stop  offset="1" style="stop-color:#4982D1"/>
			</linearGradient>
			<path style="fill:url(#SVGID_00000029764965131671366430000015008710986961808040_);" d="M408.28,231.18v32.84
				c0,2.03-1.64,3.67-3.67,3.67h-14.79c-2.03,0-3.67-1.64-3.67-3.67v-32.22c0-6.5-2.38-12.56-6.37-17.19
				c-0.21-0.24-0.33-0.55-0.33-0.87v-24.18c0-1.01,1.06-1.65,1.96-1.21C397.31,196.07,408.28,212.38,408.28,231.18z"/>
		</g>
	</g>
</g>
</svg>
